<mxfile host="app.diagrams.net" agent="Mozilla/5.0 (Windows NT 10.0; Win64; x64) AppleWebKit/537.36 (KHTML, like Gecko) Chrome/129.0.0.0 Safari/537.36" version="24.8.0">
  <diagram id="C5RBs43oDa-KdzZeNtuy" name="Page-1">
    <mxGraphModel dx="5684" dy="2460" grid="1" gridSize="10" guides="1" tooltips="1" connect="1" arrows="1" fold="1" page="1" pageScale="1" pageWidth="827" pageHeight="1169" math="0" shadow="0">
      <root>
        <mxCell id="WIyWlLk6GJQsqaUBKTNV-0" />
        <mxCell id="WIyWlLk6GJQsqaUBKTNV-1" parent="WIyWlLk6GJQsqaUBKTNV-0" />
        <mxCell id="7n0fTqxL640zUZfxedbc-0" value="Titile screen" style="rounded=0;whiteSpace=wrap;html=1;" vertex="1" parent="WIyWlLk6GJQsqaUBKTNV-1">
          <mxGeometry x="300" y="230" width="120" height="60" as="geometry" />
        </mxCell>
        <mxCell id="7n0fTqxL640zUZfxedbc-1" value="Authentication required" style="rhombus;whiteSpace=wrap;html=1;" vertex="1" parent="WIyWlLk6GJQsqaUBKTNV-1">
          <mxGeometry x="310" y="520" width="100" height="90" as="geometry" />
        </mxCell>
        <mxCell id="7n0fTqxL640zUZfxedbc-2" value="" style="endArrow=classic;html=1;rounded=0;exitX=0.5;exitY=1;exitDx=0;exitDy=0;" edge="1" parent="WIyWlLk6GJQsqaUBKTNV-1" source="7n0fTqxL640zUZfxedbc-0" target="7n0fTqxL640zUZfxedbc-1">
          <mxGeometry width="50" height="50" relative="1" as="geometry">
            <mxPoint x="400" y="420" as="sourcePoint" />
            <mxPoint x="450" y="370" as="targetPoint" />
          </mxGeometry>
        </mxCell>
        <mxCell id="7n0fTqxL640zUZfxedbc-3" value="" style="endArrow=classic;html=1;rounded=0;exitX=1;exitY=0.5;exitDx=0;exitDy=0;" edge="1" parent="WIyWlLk6GJQsqaUBKTNV-1" source="7n0fTqxL640zUZfxedbc-1">
          <mxGeometry width="50" height="50" relative="1" as="geometry">
            <mxPoint x="400" y="570" as="sourcePoint" />
            <mxPoint x="560" y="690" as="targetPoint" />
            <Array as="points">
              <mxPoint x="560" y="565" />
            </Array>
          </mxGeometry>
        </mxCell>
        <mxCell id="7n0fTqxL640zUZfxedbc-4" value="yes" style="text;html=1;align=center;verticalAlign=middle;resizable=0;points=[];autosize=1;strokeColor=none;fillColor=none;" vertex="1" parent="WIyWlLk6GJQsqaUBKTNV-1">
          <mxGeometry x="460" y="528" width="40" height="30" as="geometry" />
        </mxCell>
        <mxCell id="7n0fTqxL640zUZfxedbc-5" value="Login&lt;div&gt;screen&lt;/div&gt;" style="rounded=0;whiteSpace=wrap;html=1;" vertex="1" parent="WIyWlLk6GJQsqaUBKTNV-1">
          <mxGeometry x="500" y="690" width="120" height="60" as="geometry" />
        </mxCell>
        <mxCell id="7n0fTqxL640zUZfxedbc-6" value="" style="endArrow=classic;html=1;rounded=0;exitX=0;exitY=0.5;exitDx=0;exitDy=0;entryX=0;entryY=0.5;entryDx=0;entryDy=0;" edge="1" parent="WIyWlLk6GJQsqaUBKTNV-1" source="7n0fTqxL640zUZfxedbc-1" target="7n0fTqxL640zUZfxedbc-13">
          <mxGeometry width="50" height="50" relative="1" as="geometry">
            <mxPoint x="400" y="640" as="sourcePoint" />
            <mxPoint x="480" y="1040" as="targetPoint" />
            <Array as="points">
              <mxPoint x="160" y="565" />
              <mxPoint x="160" y="1040" />
            </Array>
          </mxGeometry>
        </mxCell>
        <mxCell id="7n0fTqxL640zUZfxedbc-7" value="no" style="text;html=1;align=center;verticalAlign=middle;resizable=0;points=[];autosize=1;strokeColor=none;fillColor=none;" vertex="1" parent="WIyWlLk6GJQsqaUBKTNV-1">
          <mxGeometry x="215" y="528" width="40" height="30" as="geometry" />
        </mxCell>
        <mxCell id="7n0fTqxL640zUZfxedbc-8" value="success" style="rhombus;whiteSpace=wrap;html=1;" vertex="1" parent="WIyWlLk6GJQsqaUBKTNV-1">
          <mxGeometry x="520" y="800" width="80" height="80" as="geometry" />
        </mxCell>
        <mxCell id="7n0fTqxL640zUZfxedbc-9" value="" style="endArrow=classic;html=1;rounded=0;exitX=0.5;exitY=1;exitDx=0;exitDy=0;entryX=0.5;entryY=0;entryDx=0;entryDy=0;" edge="1" parent="WIyWlLk6GJQsqaUBKTNV-1" source="7n0fTqxL640zUZfxedbc-5" target="7n0fTqxL640zUZfxedbc-8">
          <mxGeometry width="50" height="50" relative="1" as="geometry">
            <mxPoint x="400" y="780" as="sourcePoint" />
            <mxPoint x="450" y="730" as="targetPoint" />
          </mxGeometry>
        </mxCell>
        <mxCell id="7n0fTqxL640zUZfxedbc-11" value="" style="endArrow=classic;html=1;rounded=0;exitX=0.5;exitY=1;exitDx=0;exitDy=0;entryX=0.5;entryY=0;entryDx=0;entryDy=0;" edge="1" parent="WIyWlLk6GJQsqaUBKTNV-1" source="7n0fTqxL640zUZfxedbc-8" target="7n0fTqxL640zUZfxedbc-13">
          <mxGeometry width="50" height="50" relative="1" as="geometry">
            <mxPoint x="400" y="850" as="sourcePoint" />
            <mxPoint x="560" y="960" as="targetPoint" />
          </mxGeometry>
        </mxCell>
        <mxCell id="7n0fTqxL640zUZfxedbc-12" value="yes" style="text;html=1;align=center;verticalAlign=middle;resizable=0;points=[];autosize=1;strokeColor=none;fillColor=none;" vertex="1" parent="WIyWlLk6GJQsqaUBKTNV-1">
          <mxGeometry x="560" y="898" width="40" height="30" as="geometry" />
        </mxCell>
        <mxCell id="7n0fTqxL640zUZfxedbc-13" value="Main menu" style="rounded=0;whiteSpace=wrap;html=1;" vertex="1" parent="WIyWlLk6GJQsqaUBKTNV-1">
          <mxGeometry x="500" y="1010" width="120" height="60" as="geometry" />
        </mxCell>
        <mxCell id="7n0fTqxL640zUZfxedbc-14" value="" style="endArrow=classic;html=1;rounded=0;exitX=1;exitY=0.5;exitDx=0;exitDy=0;entryX=1;entryY=0.5;entryDx=0;entryDy=0;" edge="1" parent="WIyWlLk6GJQsqaUBKTNV-1" source="7n0fTqxL640zUZfxedbc-8" target="7n0fTqxL640zUZfxedbc-5">
          <mxGeometry width="50" height="50" relative="1" as="geometry">
            <mxPoint x="400" y="780" as="sourcePoint" />
            <mxPoint x="450" y="730" as="targetPoint" />
            <Array as="points">
              <mxPoint x="720" y="840" />
              <mxPoint x="720" y="720" />
            </Array>
          </mxGeometry>
        </mxCell>
        <mxCell id="7n0fTqxL640zUZfxedbc-15" value="no" style="text;html=1;align=center;verticalAlign=middle;resizable=0;points=[];autosize=1;strokeColor=none;fillColor=none;" vertex="1" parent="WIyWlLk6GJQsqaUBKTNV-1">
          <mxGeometry x="620" y="808" width="40" height="30" as="geometry" />
        </mxCell>
        <mxCell id="7n0fTqxL640zUZfxedbc-16" value="" style="endArrow=classic;html=1;rounded=0;exitX=0.5;exitY=1;exitDx=0;exitDy=0;" edge="1" parent="WIyWlLk6GJQsqaUBKTNV-1" source="7n0fTqxL640zUZfxedbc-13">
          <mxGeometry width="50" height="50" relative="1" as="geometry">
            <mxPoint x="400" y="1120" as="sourcePoint" />
            <mxPoint x="560" y="1230" as="targetPoint" />
          </mxGeometry>
        </mxCell>
        <mxCell id="7n0fTqxL640zUZfxedbc-17" value="" style="endArrow=classic;html=1;rounded=0;exitX=0;exitY=0.5;exitDx=0;exitDy=0;" edge="1" parent="WIyWlLk6GJQsqaUBKTNV-1" source="7n0fTqxL640zUZfxedbc-20">
          <mxGeometry width="50" height="50" relative="1" as="geometry">
            <mxPoint x="430" y="1230" as="sourcePoint" />
            <mxPoint x="80" y="1370" as="targetPoint" />
            <Array as="points">
              <mxPoint x="80" y="1270" />
            </Array>
          </mxGeometry>
        </mxCell>
        <mxCell id="7n0fTqxL640zUZfxedbc-18" value="" style="endArrow=classic;html=1;rounded=0;exitX=1;exitY=0.5;exitDx=0;exitDy=0;entryX=0.5;entryY=0;entryDx=0;entryDy=0;" edge="1" parent="WIyWlLk6GJQsqaUBKTNV-1" source="7n0fTqxL640zUZfxedbc-0" target="7n0fTqxL640zUZfxedbc-64">
          <mxGeometry width="50" height="50" relative="1" as="geometry">
            <mxPoint x="400" y="500" as="sourcePoint" />
            <mxPoint x="2400" y="490" as="targetPoint" />
            <Array as="points">
              <mxPoint x="2405" y="270" />
            </Array>
          </mxGeometry>
        </mxCell>
        <mxCell id="7n0fTqxL640zUZfxedbc-19" value="alarm triggered" style="text;html=1;align=center;verticalAlign=middle;resizable=0;points=[];autosize=1;strokeColor=none;fillColor=none;" vertex="1" parent="WIyWlLk6GJQsqaUBKTNV-1">
          <mxGeometry x="420" y="228" width="100" height="30" as="geometry" />
        </mxCell>
        <mxCell id="7n0fTqxL640zUZfxedbc-20" value="Has a&lt;div&gt;league&lt;/div&gt;" style="rhombus;whiteSpace=wrap;html=1;" vertex="1" parent="WIyWlLk6GJQsqaUBKTNV-1">
          <mxGeometry x="520" y="1229.9999999999998" width="80" height="80" as="geometry" />
        </mxCell>
        <mxCell id="7n0fTqxL640zUZfxedbc-21" value="yes" style="text;html=1;align=center;verticalAlign=middle;resizable=0;points=[];autosize=1;strokeColor=none;fillColor=none;" vertex="1" parent="WIyWlLk6GJQsqaUBKTNV-1">
          <mxGeometry x="350" y="1228" width="40" height="30" as="geometry" />
        </mxCell>
        <mxCell id="7n0fTqxL640zUZfxedbc-22" value="" style="endArrow=classic;html=1;rounded=0;" edge="1" parent="WIyWlLk6GJQsqaUBKTNV-1">
          <mxGeometry width="50" height="50" relative="1" as="geometry">
            <mxPoint x="80" y="1370" as="sourcePoint" />
            <mxPoint x="240" y="1480" as="targetPoint" />
            <Array as="points">
              <mxPoint x="240" y="1370" />
            </Array>
          </mxGeometry>
        </mxCell>
        <mxCell id="7n0fTqxL640zUZfxedbc-23" value="" style="endArrow=classic;html=1;rounded=0;" edge="1" parent="WIyWlLk6GJQsqaUBKTNV-1">
          <mxGeometry width="50" height="50" relative="1" as="geometry">
            <mxPoint x="80" y="1370" as="sourcePoint" />
            <mxPoint x="-80" y="1480" as="targetPoint" />
            <Array as="points">
              <mxPoint x="-80" y="1370" />
            </Array>
          </mxGeometry>
        </mxCell>
        <mxCell id="7n0fTqxL640zUZfxedbc-24" value="Leaderboard" style="rounded=0;whiteSpace=wrap;html=1;" vertex="1" parent="WIyWlLk6GJQsqaUBKTNV-1">
          <mxGeometry x="-140" y="1480" width="120" height="60" as="geometry" />
        </mxCell>
        <mxCell id="7n0fTqxL640zUZfxedbc-25" value="Settings" style="rounded=0;whiteSpace=wrap;html=1;" vertex="1" parent="WIyWlLk6GJQsqaUBKTNV-1">
          <mxGeometry x="-420" y="1480" width="120" height="60" as="geometry" />
        </mxCell>
        <mxCell id="7n0fTqxL640zUZfxedbc-26" value="" style="endArrow=classic;html=1;rounded=0;" edge="1" parent="WIyWlLk6GJQsqaUBKTNV-1">
          <mxGeometry width="50" height="50" relative="1" as="geometry">
            <mxPoint x="-80" y="1370" as="sourcePoint" />
            <mxPoint x="-360" y="1480" as="targetPoint" />
            <Array as="points">
              <mxPoint x="-360" y="1370" />
            </Array>
          </mxGeometry>
        </mxCell>
        <mxCell id="7n0fTqxL640zUZfxedbc-35" value="" style="endArrow=classic;html=1;rounded=0;" edge="1" parent="WIyWlLk6GJQsqaUBKTNV-1">
          <mxGeometry width="50" height="50" relative="1" as="geometry">
            <mxPoint x="1378" y="1370" as="sourcePoint" />
            <mxPoint x="1538" y="1480" as="targetPoint" />
            <Array as="points">
              <mxPoint x="1538" y="1370" />
            </Array>
          </mxGeometry>
        </mxCell>
        <mxCell id="7n0fTqxL640zUZfxedbc-36" value="" style="endArrow=classic;html=1;rounded=0;" edge="1" parent="WIyWlLk6GJQsqaUBKTNV-1">
          <mxGeometry width="50" height="50" relative="1" as="geometry">
            <mxPoint x="1378" y="1370" as="sourcePoint" />
            <mxPoint x="1218" y="1480" as="targetPoint" />
            <Array as="points">
              <mxPoint x="1218" y="1370" />
            </Array>
          </mxGeometry>
        </mxCell>
        <mxCell id="7n0fTqxL640zUZfxedbc-37" value="Join a&lt;div&gt;league&lt;/div&gt;" style="rounded=0;whiteSpace=wrap;html=1;" vertex="1" parent="WIyWlLk6GJQsqaUBKTNV-1">
          <mxGeometry x="1158" y="1480" width="120" height="60" as="geometry" />
        </mxCell>
        <mxCell id="7n0fTqxL640zUZfxedbc-38" value="Settings" style="rounded=0;whiteSpace=wrap;html=1;" vertex="1" parent="WIyWlLk6GJQsqaUBKTNV-1">
          <mxGeometry x="1475" y="1480" width="120" height="60" as="geometry" />
        </mxCell>
        <mxCell id="7n0fTqxL640zUZfxedbc-39" value="" style="endArrow=classic;html=1;rounded=0;" edge="1" parent="WIyWlLk6GJQsqaUBKTNV-1">
          <mxGeometry width="50" height="50" relative="1" as="geometry">
            <mxPoint x="1218" y="1370" as="sourcePoint" />
            <mxPoint x="938" y="1480" as="targetPoint" />
            <Array as="points">
              <mxPoint x="938" y="1370" />
            </Array>
          </mxGeometry>
        </mxCell>
        <mxCell id="7n0fTqxL640zUZfxedbc-41" value="" style="endArrow=classic;html=1;rounded=0;exitX=1;exitY=0.5;exitDx=0;exitDy=0;" edge="1" parent="WIyWlLk6GJQsqaUBKTNV-1" source="7n0fTqxL640zUZfxedbc-20">
          <mxGeometry width="50" height="50" relative="1" as="geometry">
            <mxPoint x="800" y="1400" as="sourcePoint" />
            <mxPoint x="1110" y="1370" as="targetPoint" />
            <Array as="points">
              <mxPoint x="1110" y="1270" />
            </Array>
          </mxGeometry>
        </mxCell>
        <mxCell id="7n0fTqxL640zUZfxedbc-47" value="Your alarms" style="rounded=0;whiteSpace=wrap;html=1;" vertex="1" parent="WIyWlLk6GJQsqaUBKTNV-1">
          <mxGeometry x="180" y="1480" width="120" height="60" as="geometry" />
        </mxCell>
        <mxCell id="7n0fTqxL640zUZfxedbc-48" value="" style="endArrow=classic;html=1;rounded=0;exitX=0.5;exitY=1;exitDx=0;exitDy=0;entryX=0.5;entryY=0;entryDx=0;entryDy=0;" edge="1" parent="WIyWlLk6GJQsqaUBKTNV-1" source="7n0fTqxL640zUZfxedbc-47" target="7n0fTqxL640zUZfxedbc-49">
          <mxGeometry width="50" height="50" relative="1" as="geometry">
            <mxPoint x="335" y="1600" as="sourcePoint" />
            <mxPoint x="125" y="1600" as="targetPoint" />
          </mxGeometry>
        </mxCell>
        <mxCell id="7n0fTqxL640zUZfxedbc-49" value="Add alarm" style="rounded=0;whiteSpace=wrap;html=1;" vertex="1" parent="WIyWlLk6GJQsqaUBKTNV-1">
          <mxGeometry x="55" y="1600" width="120" height="60" as="geometry" />
        </mxCell>
        <mxCell id="7n0fTqxL640zUZfxedbc-50" value="" style="endArrow=classic;html=1;rounded=0;entryX=0.5;entryY=0;entryDx=0;entryDy=0;" edge="1" parent="WIyWlLk6GJQsqaUBKTNV-1" target="7n0fTqxL640zUZfxedbc-51">
          <mxGeometry width="50" height="50" relative="1" as="geometry">
            <mxPoint x="240" y="1540" as="sourcePoint" />
            <mxPoint x="375" y="1600" as="targetPoint" />
          </mxGeometry>
        </mxCell>
        <mxCell id="7n0fTqxL640zUZfxedbc-51" value="Modify alarm" style="rounded=0;whiteSpace=wrap;html=1;" vertex="1" parent="WIyWlLk6GJQsqaUBKTNV-1">
          <mxGeometry x="300" y="1600" width="120" height="60" as="geometry" />
        </mxCell>
        <mxCell id="7n0fTqxL640zUZfxedbc-52" value="" style="endArrow=classic;html=1;rounded=0;exitX=0.5;exitY=1;exitDx=0;exitDy=0;" edge="1" parent="WIyWlLk6GJQsqaUBKTNV-1" source="7n0fTqxL640zUZfxedbc-51">
          <mxGeometry width="50" height="50" relative="1" as="geometry">
            <mxPoint x="380" y="1780" as="sourcePoint" />
            <mxPoint x="240" y="1760" as="targetPoint" />
          </mxGeometry>
        </mxCell>
        <mxCell id="7n0fTqxL640zUZfxedbc-53" value="" style="endArrow=classic;html=1;rounded=0;exitX=0.5;exitY=1;exitDx=0;exitDy=0;" edge="1" parent="WIyWlLk6GJQsqaUBKTNV-1" source="7n0fTqxL640zUZfxedbc-49">
          <mxGeometry width="50" height="50" relative="1" as="geometry">
            <mxPoint x="370" y="1720" as="sourcePoint" />
            <mxPoint x="240" y="1760" as="targetPoint" />
          </mxGeometry>
        </mxCell>
        <mxCell id="7n0fTqxL640zUZfxedbc-54" value="Alarm&lt;div&gt;prefferences&lt;/div&gt;" style="rounded=0;whiteSpace=wrap;html=1;" vertex="1" parent="WIyWlLk6GJQsqaUBKTNV-1">
          <mxGeometry x="180" y="1754" width="120" height="60" as="geometry" />
        </mxCell>
        <mxCell id="7n0fTqxL640zUZfxedbc-55" value="Your alarms" style="rounded=0;whiteSpace=wrap;html=1;" vertex="1" parent="WIyWlLk6GJQsqaUBKTNV-1">
          <mxGeometry x="875" y="1480" width="120" height="60" as="geometry" />
        </mxCell>
        <mxCell id="7n0fTqxL640zUZfxedbc-56" value="" style="endArrow=classic;html=1;rounded=0;exitX=0.5;exitY=1;exitDx=0;exitDy=0;entryX=0.5;entryY=0;entryDx=0;entryDy=0;" edge="1" parent="WIyWlLk6GJQsqaUBKTNV-1" source="7n0fTqxL640zUZfxedbc-55" target="7n0fTqxL640zUZfxedbc-57">
          <mxGeometry width="50" height="50" relative="1" as="geometry">
            <mxPoint x="1030" y="1600" as="sourcePoint" />
            <mxPoint x="820" y="1600" as="targetPoint" />
          </mxGeometry>
        </mxCell>
        <mxCell id="7n0fTqxL640zUZfxedbc-57" value="Add alarm" style="rounded=0;whiteSpace=wrap;html=1;" vertex="1" parent="WIyWlLk6GJQsqaUBKTNV-1">
          <mxGeometry x="750" y="1600" width="120" height="60" as="geometry" />
        </mxCell>
        <mxCell id="7n0fTqxL640zUZfxedbc-58" value="" style="endArrow=classic;html=1;rounded=0;entryX=0.5;entryY=0;entryDx=0;entryDy=0;" edge="1" parent="WIyWlLk6GJQsqaUBKTNV-1" target="7n0fTqxL640zUZfxedbc-59">
          <mxGeometry width="50" height="50" relative="1" as="geometry">
            <mxPoint x="935" y="1540" as="sourcePoint" />
            <mxPoint x="1070" y="1600" as="targetPoint" />
          </mxGeometry>
        </mxCell>
        <mxCell id="7n0fTqxL640zUZfxedbc-59" value="Modify alarm" style="rounded=0;whiteSpace=wrap;html=1;" vertex="1" parent="WIyWlLk6GJQsqaUBKTNV-1">
          <mxGeometry x="995" y="1600" width="120" height="60" as="geometry" />
        </mxCell>
        <mxCell id="7n0fTqxL640zUZfxedbc-60" value="" style="endArrow=classic;html=1;rounded=0;exitX=0.5;exitY=1;exitDx=0;exitDy=0;" edge="1" parent="WIyWlLk6GJQsqaUBKTNV-1" source="7n0fTqxL640zUZfxedbc-59">
          <mxGeometry width="50" height="50" relative="1" as="geometry">
            <mxPoint x="1075" y="1780" as="sourcePoint" />
            <mxPoint x="935" y="1760" as="targetPoint" />
          </mxGeometry>
        </mxCell>
        <mxCell id="7n0fTqxL640zUZfxedbc-61" value="" style="endArrow=classic;html=1;rounded=0;exitX=0.5;exitY=1;exitDx=0;exitDy=0;" edge="1" parent="WIyWlLk6GJQsqaUBKTNV-1" source="7n0fTqxL640zUZfxedbc-57">
          <mxGeometry width="50" height="50" relative="1" as="geometry">
            <mxPoint x="1065" y="1720" as="sourcePoint" />
            <mxPoint x="935" y="1760" as="targetPoint" />
          </mxGeometry>
        </mxCell>
        <mxCell id="7n0fTqxL640zUZfxedbc-62" value="Alarm&lt;div&gt;prefferences&lt;/div&gt;" style="rounded=0;whiteSpace=wrap;html=1;" vertex="1" parent="WIyWlLk6GJQsqaUBKTNV-1">
          <mxGeometry x="875" y="1754" width="120" height="60" as="geometry" />
        </mxCell>
        <mxCell id="7n0fTqxL640zUZfxedbc-63" value="Database" style="ellipse;whiteSpace=wrap;html=1;aspect=fixed;" vertex="1" parent="WIyWlLk6GJQsqaUBKTNV-1">
          <mxGeometry x="3190" y="700" width="230" height="230" as="geometry" />
        </mxCell>
        <mxCell id="7n0fTqxL640zUZfxedbc-64" value="Answered" style="rhombus;whiteSpace=wrap;html=1;" vertex="1" parent="WIyWlLk6GJQsqaUBKTNV-1">
          <mxGeometry x="2340" y="480" width="130" height="140" as="geometry" />
        </mxCell>
        <mxCell id="7n0fTqxL640zUZfxedbc-67" value="" style="endArrow=classic;html=1;rounded=0;exitX=1;exitY=0.5;exitDx=0;exitDy=0;entryX=0;entryY=0.5;entryDx=0;entryDy=0;" edge="1" parent="WIyWlLk6GJQsqaUBKTNV-1" source="7n0fTqxL640zUZfxedbc-64" target="7n0fTqxL640zUZfxedbc-70">
          <mxGeometry width="50" height="50" relative="1" as="geometry">
            <mxPoint x="2110" y="520" as="sourcePoint" />
            <mxPoint x="2870" y="550" as="targetPoint" />
          </mxGeometry>
        </mxCell>
        <mxCell id="7n0fTqxL640zUZfxedbc-68" value="no" style="text;html=1;align=center;verticalAlign=middle;resizable=0;points=[];autosize=1;strokeColor=none;fillColor=none;" vertex="1" parent="WIyWlLk6GJQsqaUBKTNV-1">
          <mxGeometry x="2560" y="510" width="40" height="30" as="geometry" />
        </mxCell>
        <mxCell id="7n0fTqxL640zUZfxedbc-70" value="Game lost" style="rounded=0;whiteSpace=wrap;html=1;" vertex="1" parent="WIyWlLk6GJQsqaUBKTNV-1">
          <mxGeometry x="2890" y="520" width="120" height="60" as="geometry" />
        </mxCell>
        <mxCell id="7n0fTqxL640zUZfxedbc-73" value="" style="endArrow=classic;html=1;rounded=0;exitX=1;exitY=0.5;exitDx=0;exitDy=0;entryX=0.5;entryY=0;entryDx=0;entryDy=0;" edge="1" parent="WIyWlLk6GJQsqaUBKTNV-1" source="7n0fTqxL640zUZfxedbc-70" target="7n0fTqxL640zUZfxedbc-63">
          <mxGeometry width="50" height="50" relative="1" as="geometry">
            <mxPoint x="2610" y="630" as="sourcePoint" />
            <mxPoint x="2660" y="580" as="targetPoint" />
            <Array as="points">
              <mxPoint x="3305" y="550" />
            </Array>
          </mxGeometry>
        </mxCell>
        <mxCell id="7n0fTqxL640zUZfxedbc-74" value="" style="endArrow=classic;html=1;rounded=0;exitX=0.5;exitY=1;exitDx=0;exitDy=0;" edge="1" parent="WIyWlLk6GJQsqaUBKTNV-1" source="7n0fTqxL640zUZfxedbc-64">
          <mxGeometry width="50" height="50" relative="1" as="geometry">
            <mxPoint x="2610" y="740" as="sourcePoint" />
            <mxPoint x="2405" y="760" as="targetPoint" />
          </mxGeometry>
        </mxCell>
        <mxCell id="7n0fTqxL640zUZfxedbc-75" value="yes" style="text;html=1;align=center;verticalAlign=middle;resizable=0;points=[];autosize=1;strokeColor=none;fillColor=none;" vertex="1" parent="WIyWlLk6GJQsqaUBKTNV-1">
          <mxGeometry x="2410" y="678" width="40" height="30" as="geometry" />
        </mxCell>
        <mxCell id="7n0fTqxL640zUZfxedbc-76" value="Starts&lt;div&gt;minigame&lt;/div&gt;" style="rounded=0;whiteSpace=wrap;html=1;" vertex="1" parent="WIyWlLk6GJQsqaUBKTNV-1">
          <mxGeometry x="2345" y="760" width="120" height="60" as="geometry" />
        </mxCell>
        <mxCell id="7n0fTqxL640zUZfxedbc-77" value="" style="endArrow=classic;html=1;rounded=0;" edge="1" parent="WIyWlLk6GJQsqaUBKTNV-1">
          <mxGeometry width="50" height="50" relative="1" as="geometry">
            <mxPoint x="2400" y="821" as="sourcePoint" />
            <mxPoint x="2400" y="930" as="targetPoint" />
          </mxGeometry>
        </mxCell>
        <mxCell id="7n0fTqxL640zUZfxedbc-78" value="Final&amp;nbsp;&lt;div&gt;score&lt;/div&gt;" style="rounded=0;whiteSpace=wrap;html=1;" vertex="1" parent="WIyWlLk6GJQsqaUBKTNV-1">
          <mxGeometry x="2340" y="920" width="120" height="60" as="geometry" />
        </mxCell>
        <mxCell id="7n0fTqxL640zUZfxedbc-79" value="" style="endArrow=classic;html=1;rounded=0;exitX=0.5;exitY=1;exitDx=0;exitDy=0;entryX=1;entryY=0.5;entryDx=0;entryDy=0;" edge="1" parent="WIyWlLk6GJQsqaUBKTNV-1" source="7n0fTqxL640zUZfxedbc-70" target="7n0fTqxL640zUZfxedbc-78">
          <mxGeometry width="50" height="50" relative="1" as="geometry">
            <mxPoint x="2610" y="860" as="sourcePoint" />
            <mxPoint x="2660" y="810" as="targetPoint" />
            <Array as="points">
              <mxPoint x="2950" y="950" />
            </Array>
          </mxGeometry>
        </mxCell>
        <mxCell id="7n0fTqxL640zUZfxedbc-80" value="" style="endArrow=classic;html=1;rounded=0;entryX=0;entryY=0.5;entryDx=0;entryDy=0;" edge="1" parent="WIyWlLk6GJQsqaUBKTNV-1" target="7n0fTqxL640zUZfxedbc-63">
          <mxGeometry width="50" height="50" relative="1" as="geometry">
            <mxPoint x="2400" y="860" as="sourcePoint" />
            <mxPoint x="2660" y="810" as="targetPoint" />
            <Array as="points">
              <mxPoint x="2770" y="860" />
              <mxPoint x="2770" y="815" />
            </Array>
          </mxGeometry>
        </mxCell>
        <mxCell id="7n0fTqxL640zUZfxedbc-81" value="" style="endArrow=classic;html=1;rounded=0;exitX=0.5;exitY=1;exitDx=0;exitDy=0;entryX=0.5;entryY=1;entryDx=0;entryDy=0;" edge="1" parent="WIyWlLk6GJQsqaUBKTNV-1" source="7n0fTqxL640zUZfxedbc-63" target="7n0fTqxL640zUZfxedbc-24">
          <mxGeometry width="50" height="50" relative="1" as="geometry">
            <mxPoint x="2900" y="1180" as="sourcePoint" />
            <mxPoint x="43.33333333333333" y="2350" as="targetPoint" />
            <Array as="points">
              <mxPoint x="3300" y="2350" />
              <mxPoint x="-80" y="2350" />
            </Array>
          </mxGeometry>
        </mxCell>
      </root>
    </mxGraphModel>
  </diagram>
</mxfile>
